<svg width="985" height="985" viewBox="0 0 985 985" fill="none" xmlns="http://www.w3.org/2000/svg">
<mask id="path-1-inside-1_6334_74" fill="white">
<path d="M96.5686 492.5C96.5686 273.833 273.833 96.5686 492.5 96.5686C711.167 96.5686 888.431 273.833 888.431 492.5C888.431 711.167 711.167 888.431 492.5 888.431C273.833 888.431 96.5686 711.167 96.5686 492.5Z"/>
</mask>
<path d="M96.5686 492.5M888.431 492.5M888.431 492.5M96.5686 492.5M492.5 96.5686M888.431 492.5M492.5 888.431M96.5686 492.5M492.5 888.431V887.431C274.385 887.431 97.5686 710.615 97.5686 492.5H96.5686H95.5686C95.5686 711.719 273.281 889.431 492.5 889.431V888.431ZM888.431 492.5H887.431C887.431 710.615 710.615 887.431 492.5 887.431V888.431V889.431C711.719 889.431 889.431 711.719 889.431 492.5H888.431ZM492.5 96.5686V97.5686C710.615 97.5686 887.431 274.385 887.431 492.5H888.431H889.431C889.431 273.281 711.719 95.5686 492.5 95.5686V96.5686ZM492.5 96.5686V95.5686C273.281 95.5686 95.5686 273.281 95.5686 492.5H96.5686H97.5686C97.5686 274.385 274.385 97.5686 492.5 97.5686V96.5686Z" fill="#BBA984" fill-opacity="0.2" mask="url(#path-1-inside-1_6334_74)"/>
<mask id="path-3-inside-2_6334_74" fill="white">
<path d="M0 492.5C0 220.5 220.5 0 492.5 0C764.5 0 985 220.5 985 492.5C985 764.5 764.5 985 492.5 985C220.5 985 0 764.5 0 492.5Z"/>
</mask>
<path d="M0 492.5M985 492.5M985 492.5M0 492.5M492.5 0M985 492.5M492.5 985M0 492.5M492.5 985V984C221.052 984 1 763.948 1 492.5H0H-1C-1 765.052 219.947 986 492.5 986V985ZM985 492.5H984C984 763.948 763.948 984 492.5 984V985V986C765.052 986 986 765.052 986 492.5H985ZM492.5 0V1C763.948 1 984 221.052 984 492.5H985H986C986 219.947 765.052 -1 492.5 -1V0ZM492.5 0V-1C219.947 -1 -1 219.947 -1 492.5H0H1C1 221.052 221.052 1 492.5 1V0Z" fill="#BBA984" fill-opacity="0.2" mask="url(#path-3-inside-2_6334_74)"/>
</svg>
